<?xml version="1.0" encoding="UTF-8" standalone="no"?>
<!-- Created with Inkscape (http://www.inkscape.org/) -->

<svg
   width="200mm"
   height="200mm"
   viewBox="0 0 200 200"
   version="1.1"
   id="svg1"
   inkscape:version="1.4.2 (f4327f4, 2025-05-13)"
   sodipodi:docname="Jez.svg"
   xml:space="preserve"
   xmlns:inkscape="http://www.inkscape.org/namespaces/inkscape"
   xmlns:sodipodi="http://sodipodi.sourceforge.net/DTD/sodipodi-0.dtd"
   xmlns="http://www.w3.org/2000/svg"
   xmlns:svg="http://www.w3.org/2000/svg"><sodipodi:namedview
     id="namedview1"
     pagecolor="#ffffff"
     bordercolor="#000000"
     borderopacity="0.25"
     inkscape:showpageshadow="2"
     inkscape:pageopacity="0.0"
     inkscape:pagecheckerboard="0"
     inkscape:deskcolor="#d1d1d1"
     inkscape:document-units="mm"
     inkscape:zoom="1"
     inkscape:cx="382"
     inkscape:cy="229.5"
     inkscape:window-width="1920"
     inkscape:window-height="1051"
     inkscape:window-x="-9"
     inkscape:window-y="-9"
     inkscape:window-maximized="1"
     inkscape:current-layer="svg1" /><defs
     id="defs1"><inkscape:path-effect
       effect="offset"
       id="path-effect42"
       is_visible="true"
       lpeversion="1.3"
       linejoin_type="miter"
       unit="mm"
       offset="7"
       miter_limit="1"
       attempt_force_join="false"
       update_on_knot_move="true" /><inkscape:path-effect
       effect="offset"
       id="path-effect17"
       is_visible="true"
       lpeversion="1.3"
       linejoin_type="miter"
       unit="mm"
       offset="7"
       miter_limit="1"
       attempt_force_join="false"
       update_on_knot_move="true" /><inkscape:path-effect
       effect="offset"
       id="path-effect11"
       is_visible="true"
       lpeversion="1.3"
       linejoin_type="miter"
       unit="mm"
       offset="7.4561"
       miter_limit="1"
       attempt_force_join="false"
       update_on_knot_move="true" /><inkscape:path-effect
       effect="offset"
       id="path-effect25"
       is_visible="true"
       lpeversion="1.3"
       linejoin_type="miter"
       unit="mm"
       offset="7.8143824"
       miter_limit="1"
       attempt_force_join="false"
       update_on_knot_move="true" /><inkscape:path-effect
       effect="offset"
       id="path-effect4"
       is_visible="true"
       lpeversion="1.3"
       linejoin_type="miter"
       unit="mm"
       offset="7.9481574"
       miter_limit="1"
       attempt_force_join="false"
       update_on_knot_move="true" /><inkscape:path-effect
       effect="offset"
       id="path-effect2"
       is_visible="true"
       lpeversion="1.3"
       linejoin_type="miter"
       unit="mm"
       offset="8.2727113"
       miter_limit="4"
       attempt_force_join="false"
       update_on_knot_move="true" /><filter
       y="-0.063874501"
       height="1.127749"
       inkscape:menu-tooltip="Darkens the edge with an inner blur and adds a flexible glow"
       inkscape:menu="Shadows and Glows"
       inkscape:label="Dark and Glow"
       style="color-interpolation-filters:sRGB;"
       id="filter2"
       x="-0.1141484"
       width="1.2282968"><feGaussianBlur
         stdDeviation="5"
         result="result6"
         id="feGaussianBlur1" /><feComposite
         result="result8"
         in="SourceGraphic"
         operator="atop"
         in2="result6"
         id="feComposite1" /><feComposite
         result="result9"
         operator="over"
         in2="SourceAlpha"
         in="result8"
         id="feComposite2" /><feColorMatrix
         values="1 0 0 0 0 0 1 0 0 0 0 0 1 0 0 0 0 0 1 0 "
         result="result10"
         id="feColorMatrix2" /><feBlend
         in="result10"
         mode="normal"
         in2="result6"
         id="feBlend2" /></filter><filter
       inkscape:label="In and Out"
       inkscape:menu="Shadows and Glows"
       inkscape:menu-tooltip="Inner colorized shadow, outer black shadow"
       style="color-interpolation-filters:sRGB;"
       id="filter3"
       x="-0.091318721"
       y="-0.051099601"
       width="1.2301993"
       height="1.1288136"><feGaussianBlur
         result="result0"
         in="SourceAlpha"
         stdDeviation="4"
         id="feGaussianBlur2" /><feOffset
         dx="5"
         dy="5"
         result="result4"
         id="feOffset2" /><feComposite
         in="SourceGraphic"
         in2="result4"
         operator="xor"
         result="result3"
         id="feComposite3" /></filter><filter
       inkscape:label="Inset"
       inkscape:menu="Shadows and Glows"
       inkscape:menu-tooltip="Shadowy outer bevel"
       style="color-interpolation-filters:sRGB;"
       id="filter5"
       x="-0.11643137"
       y="-0.065151989"
       width="1.2328627"
       height="1.130304"><feMorphology
         result="result1"
         in="SourceAlpha"
         operator="dilate"
         radius="3.6"
         id="feMorphology3" /><feGaussianBlur
         stdDeviation="3.6"
         in="result1"
         result="result0"
         id="feGaussianBlur3" /><feDiffuseLighting
         surfaceScale="-5"
         id="feDiffuseLighting3"><feDistantLight
           elevation="45"
           azimuth="225"
           id="feDistantLight3" /></feDiffuseLighting><feComposite
         in2="result0"
         operator="in"
         result="result91"
         id="feComposite4" /><feComposite
         in="SourceGraphic"
         in2="result91"
         id="feComposite5" /></filter><filter
       y="-0.063874501"
       height="1.127749"
       inkscape:menu-tooltip="Darkens the edge with an inner blur and adds a flexible glow"
       inkscape:menu="Shadows and Glows"
       inkscape:label="Dark and Glow"
       style="color-interpolation-filters:sRGB;"
       id="filter7"
       x="-0.1141484"
       width="1.2282968"><feGaussianBlur
         stdDeviation="5"
         result="result6"
         id="feGaussianBlur5" /><feComposite
         result="result8"
         in="SourceGraphic"
         operator="atop"
         in2="result6"
         id="feComposite6" /><feComposite
         result="result9"
         operator="over"
         in2="SourceAlpha"
         in="result8"
         id="feComposite7" /><feColorMatrix
         values="1 0 0 0 0 0 1 0 0 0 0 0 1 0 0 0 0 0 1 0 "
         result="result10"
         id="feColorMatrix7" /><feBlend
         in="result10"
         mode="normal"
         in2="result6"
         id="feBlend7" /></filter><filter
       style="color-interpolation-filters:sRGB;"
       inkscape:label="Poster Paint"
       id="filter89"
       x="-0.10296186"
       y="-0.0576148"
       width="1.2059237"
       height="1.1152296"><feComposite
         operator="arithmetic"
         k2="1"
         result="composite1"
         id="feComposite87" /><feGaussianBlur
         stdDeviation="4"
         result="blur1"
         id="feGaussianBlur87" /><feGaussianBlur
         in="composite1"
         stdDeviation="0.5"
         result="blur2"
         id="feGaussianBlur88" /><feBlend
         in2="blur1"
         mode="lighten"
         result="blend"
         id="feBlend88" /><feColorMatrix
         type="saturate"
         values="1"
         result="color1"
         id="feColorMatrix88" /><feComponentTransfer
         result="component"
         id="feComponentTransfer88"><feFuncR
           type="discrete"
           tableValues="0 0.0833333 0.166667 0.25 0.333333 0.416667 0.5 0.583333 0.666667 0.75 0.833333 0.916667 1 1"
           id="feFuncR88" /><feFuncG
           type="discrete"
           tableValues="0 0.0833333 0.166667 0.25 0.333333 0.416667 0.5 0.583333 0.666667 0.75 0.833333 0.916667 1 1"
           id="feFuncG88" /><feFuncB
           type="discrete"
           tableValues="0 0.0833333 0.166667 0.25 0.333333 0.416667 0.5 0.583333 0.666667 0.75 0.833333 0.916667 1 1"
           id="feFuncB88" /></feComponentTransfer><feColorMatrix
         type="saturate"
         values="1"
         result="color2"
         id="feColorMatrix89" /><feGaussianBlur
         stdDeviation="0.01"
         result="blur3"
         id="feGaussianBlur89" /><feComposite
         in2="SourceGraphic"
         operator="in"
         result="composite3"
         id="feComposite89" /></filter><filter
       inkscape:menu="Shadows and Glows"
       inkscape:menu-tooltip="Cut out, add inner shadow and colorize some parts of an image"
       style="color-interpolation-filters:sRGB;"
       inkscape:label="Emergence"
       id="filter95"
       x="-0.068489041"
       y="-0.038324701"
       width="1.1655152"
       height="1.092618"><feColorMatrix
         values="0 0 0 0 0 0 0 0 0 0 0 0 0 0 0 0.21 0.72 0.07 0 0 "
         result="result1"
         id="feColorMatrix90" /><feColorMatrix
         values="1 0 0 0 0 0 1 0 0 0 0 0 1 0 0 0 0 0 2 0 "
         result="result9"
         id="feColorMatrix91" /><feComposite
         in2="result9"
         in="SourceGraphic"
         operator="in"
         result="result4"
         id="feComposite91" /><feFlood
         result="result2"
         flood-color="rgb(0,0,0)"
         id="feFlood91" /><feComposite
         in2="result9"
         operator="in"
         result="result10"
         id="feComposite92" /><feComposite
         in2="result4"
         operator="atop"
         id="feComposite93" /><feGaussianBlur
         stdDeviation="3"
         result="result8"
         id="feGaussianBlur93" /><feOffset
         dx="3"
         dy="3"
         result="result3"
         in="result8"
         id="feOffset93" /><feFlood
         flood-opacity="1"
         flood-color="rgb(219,173,62)"
         result="result5"
         id="feFlood93" /><feMerge
         result="result6"
         id="feMerge95"><feMergeNode
           in="result5"
           id="feMergeNode93" /><feMergeNode
           in="result3"
           id="feMergeNode94" /><feMergeNode
           in="result4"
           id="feMergeNode95" /></feMerge><feComposite
         in2="SourceGraphic"
         operator="in"
         result="result7"
         id="feComposite95" /></filter><filter
       y="-0.063874501"
       height="1.127749"
       inkscape:menu-tooltip="Darkens the edge with an inner blur and adds a flexible glow"
       inkscape:menu="Shadows and Glows"
       inkscape:label="Dark and Glow"
       style="color-interpolation-filters:sRGB;"
       id="filter98"
       x="-0.1141484"
       width="1.2282968"><feGaussianBlur
         stdDeviation="5"
         result="result6"
         id="feGaussianBlur97" /><feComposite
         result="result8"
         in="SourceGraphic"
         operator="atop"
         in2="result6"
         id="feComposite97" /><feComposite
         result="result9"
         operator="over"
         in2="SourceAlpha"
         in="result8"
         id="feComposite98" /><feColorMatrix
         values="1 0 0 0 0 0 1 0 0 0 0 0 1 0 0 0 0 0 1 0 "
         result="result10"
         id="feColorMatrix98" /><feBlend
         in="result10"
         mode="normal"
         in2="result6"
         id="feBlend98" /></filter></defs><g
     id="g42"
     transform="matrix(1.2058361,0,0,1.2058361,-18.368525,-1.8453003)"><path
       id="path19-1-1-7"
       style="fill:#ffffff;fill-opacity:1;stroke-width:0.3;stroke-linecap:round;stroke-linejoin:round;paint-order:stroke fill markers"
       d="M 75.816406,15.564453 C 52.302143,15.703142 33.370132,32.411128 24.992187,69.205078 l -0.128906,0.863281 c -0.03419,0.463882 -0.05256,0.927337 -0.05859,1.382813 V 71.625 l 0.150391,8.851562 0.273438,-1.748046 -0.08789,3.318359 7.912109,28.058595 c -0.630726,25.58806 -0.916686,27.82796 -0.982422,28.38672 -0.535568,4.55234 1.07414,9.24913 3.419922,12.0664 l 1.384766,1.20703 c 6.906867,4.3168 13.827779,-1.13091 17.935547,-5.05859 2.186877,-2.091 4.981672,-5.151 6.554687,-6.72656 1.198488,-1.20043 2.27035,-2.05909 2.47461,-2.18164 1.417108,-0.85027 2.938783,-2.24694 3.976562,-3.31641 2.223813,-2.29172 4.799536,-5.55276 6.904297,-8.0625 2.245079,-2.67705 4.526077,-5.06897 5.796875,-5.97656 0.07943,-0.0567 0.154072,-0.1092 0.222656,-0.1543 0.02372,-0.0156 0.04803,-0.0288 0.07031,-0.043 0.357037,0.20782 0.958596,0.65706 1.794922,1.58399 1.433826,1.58916 5.077177,7.1114 8.740234,9.17187 5.938676,3.34051 12.441437,0.65196 16.238277,-0.75586 0.76212,0.75893 1.59479,1.41125 2.39063,1.95118 2.463,1.67098 10.6558,6.01964 15.51172,1.85742 1.39557,-1.1962 2.0234,-2.80792 2.25976,-3.79492 0.22218,-0.92776 0.27845,-1.85012 0.26172,-2.6836 1.58984,2.3465 4.21448,4.37158 7.98438,6.56055 2.31168,1.34226 5.08519,2.28298 7.98828,1.71289 5.71978,-1.12321 7.49477,-6.75763 8.17969,-10.1582 0.52972,-2.63006 0.96033,-7.45943 1.19531,-8.81055 0.31667,-1.82088 0.49347,-1.89102 0.6582,-2.0918 0.17833,-0.21734 3.19883,-2.65994 5.11524,-5.16601 1.30904,-1.71184 2.23145,-3.94273 2.91796,-6.18555 2.22432,-0.75297 4.00629,-2.0032 5.19141,-3.05664 4.2329,-3.76258 5.48266,-9.745601 3.05274,-14.605469 -0.60261,-1.205193 -1.54676,-2.406499 -3.06446,-3.240235 -0.70599,-0.387833 -1.45482,-0.619203 -2.21484,-0.740234 -0.11202,-2.307756 -0.57927,-4.653655 -1.83008,-6.361328 -0.009,-0.01229 -0.0165,-0.02482 -0.0254,-0.03711 -0.0269,-0.03615 -0.0545,-0.07186 -0.082,-0.107422 l 0.0586,0.08203 C 138.08055,40.925142 104.90075,15.392911 75.816406,15.564453 Z"
       inkscape:path-effect="#path-effect42"
       inkscape:original-d="m 30.65239,70.494857 c -0.02443,0.331472 -0.03868,0.675903 -0.04341,1.033011 l 0.15137,8.851659 -0.03101,0.09095 8.148343,28.895913 c 0,0 -0.64788,26.45167 -1.042316,29.80437 -0.529166,4.49792 2.116666,7.67292 2.116666,7.67292 6.35,3.96875 15.610417,-10.84792 20.902084,-14.02292 5.291666,-3.175 14.2875,-19.05 20.108333,-18.52083 5.820833,0.52917 8.995834,9.26042 13.229167,11.64167 4.233334,2.38125 8.731243,-0.52917 13.493743,-1.85209 4.7625,-1.32291 0.52916,-6.08541 -2.11667,-8.20208 -2.64583,-2.11667 -3.96875,2.38125 -5.29167,-1.5875 -1.322899,-3.96875 0.79375,-10.31875 3.43959,-8.99583 2.64583,1.32291 6.61458,14.55208 6.61458,18.25625 0,3.70416 9.525,7.67291 11.37708,6.08541 1.85209,-1.5875 -2.11666,-12.43541 -2.11666,-16.66875 0,-4.23333 2.38125,-10.05416 5.55625,-5.29166 3.175,4.7625 6.87916,7.40833 6.87916,11.1125 0,3.70416 -1.32291,5.55625 6.87917,10.31875 8.20208,4.76249 7.67291,-7.14375 8.73125,-13.22917 1.05833,-6.08542 3.43959,-5.29167 6.87917,-9.78958 1.12595,-1.4724 2.11018,-4.39067 2.86907,-7.817611 2.5095,0.243015 4.6892,-1.076321 5.99447,-2.236556 2.38125,-2.116667 2.91041,-5.291667 1.71979,-7.672917 -0.90539,-1.810764 -2.80525,-0.561664 -6.28127,0.198955 0.33862,-4.176198 0.83848,-8.212785 -0.33331,-9.723955 C 114.27204,18.009061 48.676407,-8.6623623 30.65239,70.494857 Z M 134.6078,105.68347 c 1.0884,0.0285 1.78581,0.59747 2.10737,1.14412 0.46773,0.79513 1.5902,2.1985 0.46767,2.90008 -1.12254,0.70159 -2.94666,1.63709 -4.67723,0.0935 0,0 -1.73062,-2.94701 0.37413,-3.78891 0.65774,-0.2631 1.23334,-0.36178 1.72806,-0.34882 z"
       sodipodi:nodetypes="cccccscssssssssssssssscsscscssscsss" /><path
       id="path42"
       style="display:inline;fill:#d35f00;fill-opacity:1;stroke-width:0.3;stroke-linecap:round;stroke-linejoin:round;paint-order:stroke fill markers"
       d="m 92.798987,20.060274 2.401404,5.297351 -1.223182,-1.3224 2.086178,3.225643 2.078426,4.584733 C 97.792579,31.682382 97.441314,31.52044 97.088647,31.359843 l -10.498584,-11.098547 6.269902,9.353951 c -0.981746,-0.327528 -1.966689,-0.591601 -2.953308,-0.796334 l -4.996594,-7.264156 2.741434,6.047176 -6.906038,-6.105054 5.404838,6.821806 c -0.224608,-0.01375 -0.449311,-0.0249 -0.673861,-0.03307 -0.584287,-0.02127 -1.168397,-0.02359 -1.751831,-0.0083 l -3.15898,-3.803386 0.0801,3.607532 -0.820105,-0.10697 -10.940934,-7.882206 7.16132,7.391797 -3.716569,-0.482658 -2.611727,-2.792078 1.132231,2.599841 -11.810649,-1.533756 12.692249,3.558956 0.637687,1.463993 -5.253426,-2.13527 4.527372,2.795178 c -0.281827,0.11393 -0.563054,0.230892 -0.843359,0.350883 l -3.023588,-1.723926 1.904793,1.485698 -0.504362,-0.135909 -2.069641,-1.009241 -1.754932,-1.879989 -0.10542,1.828829 -5.108215,-1.37821 5.061707,2.18643 -0.02791,0.481107 -5.573303,-2.901631 1.315682,0.994254 -1.16582,-0.571541 4.011641,2.914551 -10.368876,-2.204517 -5.368148,-1.608687 5.188831,2.623095 -1.779736,-0.264066 3.643705,1.205611 6.676595,3.374988 -8.701278,-0.958081 4.30103,1.246435 1.60662,0.629936 -3.253548,0.65474 -4.774386,-0.953947 3.22461,1.265556 -1.361674,0.273885 -9.982337,-2.991032 6.500895,3.286105 -7.271391,-0.265617 10.566281,1.931148 0.166914,0.08475 -3.853511,0.457336 -0.498161,0.03204 0.122473,0.0124 -8.553483,1.015442 10.343038,0.506429 -5.488037,1.247469 3.658691,1.175639 -10.526489,1.711523 3.318661,-0.05633 -3.763595,0.855761 11.96051,-0.611849 -7.089489,2.124419 -3.198772,-0.0052 2.00763,0.362252 -8.129737,2.436027 12.793535,-1.594735 0.773079,0.139526 -14.328841,3.257166 6.007385,-0.307475 -9.038724,2.865975 13.421919,-1.756482 1.307414,-0.02222 c -0.278078,0.346041 -0.548854,0.68934 -0.810803,1.027328 l -11.403955,6.065779 9.215458,-3.071647 c -0.220896,0.322784 -0.431953,0.63915 -0.63252,0.947229 l -6.569624,3.494361 0.462504,-0.153996 -9.31106,4.847249 12.215275,-3.819922 -0.357084,0.383956 -9.957015,8.013465 5.101497,-2.792078 -1.226281,1.318266 3.059244,-2.321822 3.725871,-2.039152 c -0.02443,0.331472 -0.03868,0.675903 -0.04341,1.033011 l -3.600297,1.915129 1.564762,-0.521415 -1.131197,0.63717 3.173967,-1.124996 c 0.0059,0.208725 0.01497,0.420849 0.02635,0.636654 l -0.218592,0.21084 0.221692,-0.149862 c 0.01011,0.183987 0.02223,0.370235 0.03617,0.559139 l -8.721432,3.700033 4.561996,0.123506 -6.460588,5.2002 5.101498,-2.792595 -1.226282,1.318783 3.057694,-2.320789 2.424659,-1.327567 0.697631,0.01912 -8.041886,6.472473 2.276347,-1.245919 -4.078821,3.282487 5.100981,-2.792077 -1.225765,1.318266 2.98483,-2.265495 -3.004467,4.048331 5.282881,-5.310787 1.349272,-0.738972 -0.03101,0.09095 -4.006474,3.66696 c 0,0 1.439077,-0.511918 3.133659,-1.10691 l -0.578259,1.696021 -7.133932,5.741768 6.363436,-3.482991 -0.01344,0.03927 -3.519165,4.741313 -2.619478,2.108398 4.675167,-2.559017 -0.86558,2.53783 -1.756482,2.36678 1.444873,-1.452624 -1.247469,3.657658 1.322916,-1.984375 3.535702,-5.303553 1.88774,-1.897558 -1.422136,3.576009 -4.001306,3.625102 3.36672,-2.028817 -0.323495,0.813904 0.603581,-0.982886 3.149679,-1.897559 -3.684013,9.265068 1.825211,-2.970878 -0.865063,2.692342 3.080949,-5.948474 -3.829741,9.633004 2.814299,-4.581116 -1.011825,2.544547 1.125513,-1.831929 -0.495577,1.542541 -5.227071,9.62525 5.004346,-4.86792 -1.18029,3.6742 1.276408,-2.46394 1.989026,-3.238557 1.158585,-1.127063 -3.370853,8.47803 1.504817,-2.44946 1.948719,-0.64957 -1.848466,7.80366 3.905188,-7.08174 -2.44998,7.87549 4.352189,-4.35219 -0.03927,0.31884 -0.19637,0.2651 0.187068,-0.1881 -0.32091,2.61844 1.024743,-3.32589 0.268201,-0.26975 -0.6165,5.02966 -11.214819,9.02684 10.835514,-5.93142 -0.227376,1.85519 0.641304,-2.08153 0.259416,-0.14211 -0.635103,5.18211 -8.749854,8.18658 9.830925,-6.3748 c -2.904869,7.26052 -8.444301,13.55324 -8.838737,16.90594 -0.529166,4.49792 2.116666,7.67292 2.116666,7.67292 6.35,3.96875 15.610417,-10.84792 20.902084,-14.02292 5.291666,-3.175 14.2875,-19.05 20.108333,-18.52083 5.820833,0.52917 8.995834,9.26042 13.229167,11.64167 4.233334,2.38125 8.73125,-0.52917 13.49375,-1.85209 4.7625,-1.32291 0.52916,-6.08541 -2.11667,-8.20208 -2.64583,-2.11667 -3.96875,2.38125 -5.29167,-1.5875 -1.322906,-3.96875 0.79375,-10.31875 3.43959,-8.99583 2.64583,1.32291 6.61458,14.55208 6.61458,18.25625 0,3.70416 9.525,7.67291 11.37708,6.08541 1.85209,-1.5875 -2.11666,-12.43541 -2.11666,-16.66875 0,-4.23333 2.38125,-10.05416 5.55625,-5.29166 3.175,4.7625 6.87916,7.40833 6.87916,11.1125 0,3.70416 -1.32291,5.55625 6.87917,10.31875 8.20208,4.76249 7.67291,-7.14375 8.73125,-13.22917 1.05833,-6.08542 3.43959,-5.29167 6.87917,-9.78958 1.12595,-1.4724 2.11018,-4.39067 2.86907,-7.817613 2.5095,0.243015 4.6892,-1.076321 5.99447,-2.236556 2.38125,-2.116667 2.91041,-5.291667 1.71979,-7.672917 -0.90539,-1.810764 -2.80525,-0.561664 -6.28127,0.198955 0.33862,-4.176198 0.27139,-7.909832 -0.33331,-9.723955 -1.5875,-4.7625 -15.08125,-10.583334 -18.25625,-15.08125 -0.81133,-1.149385 -2.52095,-3.179653 -5.03639,-5.746936 l -2.90111,-6.423897 v 3.576009 c -0.9036,-0.854993 -1.87453,-1.746129 -2.91042,-2.664953 v -5.541264 l -1.4304,4.291211 c -0.45815,-0.394504 -0.92779,-0.793162 -1.40819,-1.195276 l -4.70204,-8.25531 0.27699,4.706689 c -0.32989,-0.253398 -0.66385,-0.507788 -1.00149,-0.762227 l -1.12758,-6.458004 -0.18448,4.785754 -5.84874,-17.054256 2.95331,15.679663 c -0.30997,-0.215563 -0.62273,-0.43067 -0.93793,-0.645955 l -1.80299,-7.130831 0.13849,4.014742 -3.6065,-10.51512 2.18127,11.582755 c -0.31644,-0.203507 -0.635,-0.406675 -0.95602,-0.609265 l -3.70468,-10.801925 1.81384,9.630937 c -0.11325,-0.06881 -0.22677,-0.137533 -0.34055,-0.206189 l -7.21454,-15.732373 3.07113,10.455176 -7.203178,-9.318811 3.568768,6.676078 0.96842,3.562573 -2.83962,-3.06958 z m -17.932756,9.652641 0.156063,0.04393 c -0.02971,0.0091 -0.0597,0.01822 -0.0894,0.02739 z m -34.50332,52.348226 c 0.12163,0.457341 0.245813,0.916828 0.371554,1.37821 l -2.74712,2.488221 z m -5.752104,1.379244 -0.134875,0.394808 -1.294495,1.041797 z m 8.030001,16.304431 -0.860412,3.632334 -2.036569,1.08314 z m 91.966992,5.938654 c 1.0884,0.0285 1.78581,0.59747 2.10737,1.14412 0.46773,0.79513 1.5902,2.1985 0.46767,2.90008 -1.12254,0.70159 -2.94666,1.63709 -4.67723,0.0935 0,0 -1.73062,-2.94701 0.37413,-3.78891 0.65774,-0.2631 1.23334,-0.36178 1.72806,-0.34882 z m -86.186983,8.3876 c 0.0027,0.16984 0.002,0.33434 -0.0021,0.49351 -0.0318,1.24005 -0.201113,2.47269 -0.475423,3.68918 -3.8e-5,1.7e-4 3.7e-5,3.5e-4 0,5.2e-4 l -2.233456,2.08928 1.775086,-5.76037 z" /></g></svg>
