<?xml version="1.0" encoding="UTF-8" standalone="no"?>
<!-- Created with Inkscape (http://www.inkscape.org/) -->

<svg
   width="200mm"
   height="200mm"
   viewBox="0 0 200 200"
   version="1.1"
   id="svg1"
   inkscape:version="1.4.2 (f4327f4, 2025-05-13)"
   sodipodi:docname="Kob.svg"
   xml:space="preserve"
   xmlns:inkscape="http://www.inkscape.org/namespaces/inkscape"
   xmlns:sodipodi="http://sodipodi.sourceforge.net/DTD/sodipodi-0.dtd"
   xmlns="http://www.w3.org/2000/svg"
   xmlns:svg="http://www.w3.org/2000/svg"><sodipodi:namedview
     id="namedview1"
     pagecolor="#ffffff"
     bordercolor="#000000"
     borderopacity="0.25"
     inkscape:showpageshadow="2"
     inkscape:pageopacity="0.0"
     inkscape:pagecheckerboard="0"
     inkscape:deskcolor="#d1d1d1"
     inkscape:document-units="mm"
     inkscape:zoom="1"
     inkscape:cx="422"
     inkscape:cy="397.5"
     inkscape:window-width="1920"
     inkscape:window-height="1051"
     inkscape:window-x="-9"
     inkscape:window-y="-9"
     inkscape:window-maximized="1"
     inkscape:current-layer="svg1" /><defs
     id="defs1"><inkscape:path-effect
       effect="offset"
       id="path-effect18"
       is_visible="true"
       lpeversion="1.3"
       linejoin_type="miter"
       unit="mm"
       offset="9.3936293"
       miter_limit="1"
       attempt_force_join="false"
       update_on_knot_move="true" /><inkscape:path-effect
       effect="offset"
       id="path-effect12"
       is_visible="true"
       lpeversion="1.3"
       linejoin_type="miter"
       unit="mm"
       offset="9.6012145"
       miter_limit="1"
       attempt_force_join="false"
       update_on_knot_move="true" /><inkscape:path-effect
       effect="offset"
       id="path-effect9"
       is_visible="true"
       lpeversion="1.3"
       linejoin_type="miter"
       unit="mm"
       offset="7"
       miter_limit="4"
       attempt_force_join="false"
       update_on_knot_move="true" /><inkscape:path-effect
       effect="offset"
       id="path-effect8"
       is_visible="true"
       lpeversion="1.3"
       linejoin_type="miter"
       unit="mm"
       offset="10.017842"
       miter_limit="4"
       attempt_force_join="false"
       update_on_knot_move="true" /><inkscape:path-effect
       effect="offset"
       id="path-effect7"
       is_visible="true"
       lpeversion="1.3"
       linejoin_type="miter"
       unit="mm"
       offset="7"
       miter_limit="4"
       attempt_force_join="false"
       update_on_knot_move="true" /><inkscape:path-effect
       effect="offset"
       id="path-effect2"
       is_visible="true"
       lpeversion="1.3"
       linejoin_type="miter"
       unit="mm"
       offset="7"
       miter_limit="4"
       attempt_force_join="false"
       update_on_knot_move="true" /><filter
       y="-0.063874501"
       height="1.127749"
       inkscape:menu-tooltip="Darkens the edge with an inner blur and adds a flexible glow"
       inkscape:menu="Shadows and Glows"
       inkscape:label="Dark and Glow"
       style="color-interpolation-filters:sRGB;"
       id="filter2"
       x="-0.1141484"
       width="1.2282968"><feGaussianBlur
         stdDeviation="5"
         result="result6"
         id="feGaussianBlur1" /><feComposite
         result="result8"
         in="SourceGraphic"
         operator="atop"
         in2="result6"
         id="feComposite1" /><feComposite
         result="result9"
         operator="over"
         in2="SourceAlpha"
         in="result8"
         id="feComposite2" /><feColorMatrix
         values="1 0 0 0 0 0 1 0 0 0 0 0 1 0 0 0 0 0 1 0 "
         result="result10"
         id="feColorMatrix2" /><feBlend
         in="result10"
         mode="normal"
         in2="result6"
         id="feBlend2" /></filter><filter
       inkscape:label="In and Out"
       inkscape:menu="Shadows and Glows"
       inkscape:menu-tooltip="Inner colorized shadow, outer black shadow"
       style="color-interpolation-filters:sRGB;"
       id="filter3"
       x="-0.091318721"
       y="-0.051099601"
       width="1.2301993"
       height="1.1288136"><feGaussianBlur
         result="result0"
         in="SourceAlpha"
         stdDeviation="4"
         id="feGaussianBlur2" /><feOffset
         dx="5"
         dy="5"
         result="result4"
         id="feOffset2" /><feComposite
         in="SourceGraphic"
         in2="result4"
         operator="xor"
         result="result3"
         id="feComposite3" /></filter><filter
       inkscape:label="Inset"
       inkscape:menu="Shadows and Glows"
       inkscape:menu-tooltip="Shadowy outer bevel"
       style="color-interpolation-filters:sRGB;"
       id="filter5"
       x="-0.11643137"
       y="-0.065151989"
       width="1.2328627"
       height="1.130304"><feMorphology
         result="result1"
         in="SourceAlpha"
         operator="dilate"
         radius="3.6"
         id="feMorphology3" /><feGaussianBlur
         stdDeviation="3.6"
         in="result1"
         result="result0"
         id="feGaussianBlur3" /><feDiffuseLighting
         surfaceScale="-5"
         id="feDiffuseLighting3"><feDistantLight
           elevation="45"
           azimuth="225"
           id="feDistantLight3" /></feDiffuseLighting><feComposite
         in2="result0"
         operator="in"
         result="result91"
         id="feComposite4" /><feComposite
         in="SourceGraphic"
         in2="result91"
         id="feComposite5" /></filter><filter
       y="-0.063874501"
       height="1.127749"
       inkscape:menu-tooltip="Darkens the edge with an inner blur and adds a flexible glow"
       inkscape:menu="Shadows and Glows"
       inkscape:label="Dark and Glow"
       style="color-interpolation-filters:sRGB;"
       id="filter7"
       x="-0.1141484"
       width="1.2282968"><feGaussianBlur
         stdDeviation="5"
         result="result6"
         id="feGaussianBlur5" /><feComposite
         result="result8"
         in="SourceGraphic"
         operator="atop"
         in2="result6"
         id="feComposite6" /><feComposite
         result="result9"
         operator="over"
         in2="SourceAlpha"
         in="result8"
         id="feComposite7" /><feColorMatrix
         values="1 0 0 0 0 0 1 0 0 0 0 0 1 0 0 0 0 0 1 0 "
         result="result10"
         id="feColorMatrix7" /><feBlend
         in="result10"
         mode="normal"
         in2="result6"
         id="feBlend7" /></filter><filter
       style="color-interpolation-filters:sRGB;"
       inkscape:label="Poster Paint"
       id="filter89"
       x="-0.10296186"
       y="-0.0576148"
       width="1.2059237"
       height="1.1152296"><feComposite
         operator="arithmetic"
         k2="1"
         result="composite1"
         id="feComposite87" /><feGaussianBlur
         stdDeviation="4"
         result="blur1"
         id="feGaussianBlur87" /><feGaussianBlur
         in="composite1"
         stdDeviation="0.5"
         result="blur2"
         id="feGaussianBlur88" /><feBlend
         in2="blur1"
         mode="lighten"
         result="blend"
         id="feBlend88" /><feColorMatrix
         type="saturate"
         values="1"
         result="color1"
         id="feColorMatrix88" /><feComponentTransfer
         result="component"
         id="feComponentTransfer88"><feFuncR
           type="discrete"
           tableValues="0 0.0833333 0.166667 0.25 0.333333 0.416667 0.5 0.583333 0.666667 0.75 0.833333 0.916667 1 1"
           id="feFuncR88" /><feFuncG
           type="discrete"
           tableValues="0 0.0833333 0.166667 0.25 0.333333 0.416667 0.5 0.583333 0.666667 0.75 0.833333 0.916667 1 1"
           id="feFuncG88" /><feFuncB
           type="discrete"
           tableValues="0 0.0833333 0.166667 0.25 0.333333 0.416667 0.5 0.583333 0.666667 0.75 0.833333 0.916667 1 1"
           id="feFuncB88" /></feComponentTransfer><feColorMatrix
         type="saturate"
         values="1"
         result="color2"
         id="feColorMatrix89" /><feGaussianBlur
         stdDeviation="0.01"
         result="blur3"
         id="feGaussianBlur89" /><feComposite
         in2="SourceGraphic"
         operator="in"
         result="composite3"
         id="feComposite89" /></filter><filter
       inkscape:menu="Shadows and Glows"
       inkscape:menu-tooltip="Cut out, add inner shadow and colorize some parts of an image"
       style="color-interpolation-filters:sRGB;"
       inkscape:label="Emergence"
       id="filter95"
       x="-0.068489041"
       y="-0.038324701"
       width="1.1655152"
       height="1.092618"><feColorMatrix
         values="0 0 0 0 0 0 0 0 0 0 0 0 0 0 0 0.21 0.72 0.07 0 0 "
         result="result1"
         id="feColorMatrix90" /><feColorMatrix
         values="1 0 0 0 0 0 1 0 0 0 0 0 1 0 0 0 0 0 2 0 "
         result="result9"
         id="feColorMatrix91" /><feComposite
         in2="result9"
         in="SourceGraphic"
         operator="in"
         result="result4"
         id="feComposite91" /><feFlood
         result="result2"
         flood-color="rgb(0,0,0)"
         id="feFlood91" /><feComposite
         in2="result9"
         operator="in"
         result="result10"
         id="feComposite92" /><feComposite
         in2="result4"
         operator="atop"
         id="feComposite93" /><feGaussianBlur
         stdDeviation="3"
         result="result8"
         id="feGaussianBlur93" /><feOffset
         dx="3"
         dy="3"
         result="result3"
         in="result8"
         id="feOffset93" /><feFlood
         flood-opacity="1"
         flood-color="rgb(219,173,62)"
         result="result5"
         id="feFlood93" /><feMerge
         result="result6"
         id="feMerge95"><feMergeNode
           in="result5"
           id="feMergeNode93" /><feMergeNode
           in="result3"
           id="feMergeNode94" /><feMergeNode
           in="result4"
           id="feMergeNode95" /></feMerge><feComposite
         in2="SourceGraphic"
         operator="in"
         result="result7"
         id="feComposite95" /></filter><filter
       y="-0.063874501"
       height="1.127749"
       inkscape:menu-tooltip="Darkens the edge with an inner blur and adds a flexible glow"
       inkscape:menu="Shadows and Glows"
       inkscape:label="Dark and Glow"
       style="color-interpolation-filters:sRGB;"
       id="filter98"
       x="-0.1141484"
       width="1.2282968"><feGaussianBlur
         stdDeviation="5"
         result="result6"
         id="feGaussianBlur97" /><feComposite
         result="result8"
         in="SourceGraphic"
         operator="atop"
         in2="result6"
         id="feComposite97" /><feComposite
         result="result9"
         operator="over"
         in2="SourceAlpha"
         in="result8"
         id="feComposite98" /><feColorMatrix
         values="1 0 0 0 0 0 1 0 0 0 0 0 1 0 0 0 0 0 1 0 "
         result="result10"
         id="feColorMatrix98" /><feBlend
         in="result10"
         mode="normal"
         in2="result6"
         id="feBlend98" /></filter></defs><path
     id="path13"
     style="display:inline;fill:#ffffff;fill-opacity:1;stroke-width:7;stroke-linecap:round;stroke-linejoin:round;paint-order:stroke fill markers"
     d="m 120.12305,27.039062 c -2.59818,0.103418 -4.51932,1.595898 -5.48438,2.824219 -2.07204,2.637279 -1.98685,6.44587 -1.99804,7.792969 -0.0261,3.1369 0.89865,6.187986 1.82031,8.46875 -1.18,1.913178 -1.67507,4.508345 -1.02539,7.775391 0.8283,4.165282 3.29413,9.61767 7.49804,12.050781 -0.24623,1.397347 -0.22908,2.603648 -0.24414,3.02539 -0.0312,0.873301 -0.0783,1.694422 -0.13476,2.294922 -0.50053,0.0139 -0.99121,0.04573 -1.47266,0.08789 -4.81307,0.421493 -8.76875,1.69973 -17.41211,2.408203 -5.704005,0.467542 -12.102377,-0.491709 -17.374998,-1.554687 -2.636311,-0.53149 -7.010825,-1.534971 -9.095703,-1.785157 -6.94873,-0.833847 -10.514243,1.795388 -14.972657,3.681641 l -1.11914,0.597656 c -0.17705,0.116427 -6.800671,3.163301 -8.333985,4.144531 -0.899743,0.575784 -2.043768,1.422216 -3.007812,2.525391 l -0.328125,0.40625 c -1.581476,2.108635 -5.039776,9.234659 -5.724609,12.316406 -0.162725,0.732256 -2.055536,9.241561 -1.517579,13.679691 0.421034,3.47353 3.389584,10.14549 6.636719,12.8125 0.585272,0.48071 2.255236,1.76136 4.75586,1.79297 1.412204,0.0178 2.615977,-0.33714 3.613281,-0.9043 0.06294,0.11453 0.125873,0.22766 0.185547,0.33984 0.03412,0.0641 0.0669,0.12861 0.09961,0.19141 -0.394101,0.64069 -0.802262,1.30401 -0.802734,1.30469 -0.804879,1.15465 -2.016935,2.49118 -2.050782,2.58203 v 0.002 0.002 h 0.002 c 0,0 0.002,0 0.002,0 0,0 0.002,-0.002 0.002,-0.002 0.01175,-0.007 0.03733,-0.0277 0.07813,-0.0645 -1.895498,1.70595 -5.170816,4.44732 -3.53125,13.58203 0.277686,1.54711 0.663292,6.7368 0.892578,11.27148 0.100313,1.98393 0.334053,8.88248 0.742187,10.78711 0.05454,0.2545 0.471563,4.0648 1.435547,5.99219 0.524593,1.04887 2.220167,3.64993 5.572266,4.10352 0.05134,-2.5e-4 0.111008,0.004 0.154297,0.0137 0.01615,0.004 0.03225,0.008 0.05078,0.0117 0.239278,0.0256 0.48839,0.0405 0.744141,0.043 -0.253864,-0.002 -0.453272,-0.007 -0.605469,-0.0117 0.03628,0.008 0.07655,0.0179 0.117187,0.0273 0.05075,0.0118 0.103385,0.0238 0.160157,0.0371 0.851571,0.19915 4.744468,1.29244 7.859375,0.55078 0.996035,-0.23715 1.873518,-0.61117 2.630859,-1.0918 1.204959,0.48579 2.553048,0.70162 4.058594,0.55274 2.165892,-0.21418 4.027169,-1.27337 5.320312,-2.73633 3.879432,-4.38887 2.152242,-10.82251 0.464844,-14.75977 -1.538747,-3.5904 -3.001741,-6.91688 -2.427734,-10.57617 0.667628,-4.25613 2.350001,-11.92588 4.871093,-17.10937 0.05821,-0.0282 0.122584,-0.0576 0.189454,-0.0879 0.0874,-0.0396 0.181306,-0.0795 0.28125,-0.1211 0.111048,-0.0463 0.228089,-0.0936 0.351562,-0.14062 0.926051,-0.35291 2.153939,-0.6883 3.121094,-0.8711 0.634696,-0.11995 1.335352,-0.10252 1.414062,-0.12304 h 0.002 l 0.002,-0.002 h 0.002 v -0.002 -0.002 h -0.002 l -0.002,-0.002 c -0.02578,-0.0128 -0.172617,-0.035 -0.488281,-0.0801 2.557216,0.36532 11.39183,0.85931 17.927734,0.96484 0.42118,1.7793 0.89013,3.7691 1.36719,5.81641 0.0477,2.00348 0.11408,4.42914 0.18359,5.75 0.0645,1.22582 0.78321,6.87089 0.78321,6.51172 0,0.5282 5.3e-4,2.97193 0.0801,5.71093 0.0629,2.16543 0.21623,5.40013 0.51758,7.46289 0.0984,0.67332 0.70041,5.28232 4.28516,7.10743 2.22607,2.55953 5.62718,4.04882 8.46679,4.04882 1.63757,0 3.58397,0.0105 6.22852,-0.95117 2.87512,-1.0455 6.03042,-3.99258 5.58203,-8.49414 -0.27479,-2.7588 -1.84231,-4.70973 -3.44141,-5.94141 -0.0175,-0.0541 -0.0347,-0.11022 -0.0527,-0.16992 -0.033,-0.10911 -0.0663,-0.22854 -0.0996,-0.35351 -0.037,-0.13886 -0.0737,-0.28519 -0.10937,-0.43946 -0.23764,-1.02843 -0.41252,-2.34819 -0.44922,-3.44921 -0.0739,-2.21688 0.91727,-6.80204 1.05859,-11.32422 0.044,-1.40925 0.44164,-4.89045 0.91602,-7.99024 0.36381,-2.37734 0.84618,-4.87092 1.08007,-6.00781 0.004,-0.005 0.007,-0.01 0.0117,-0.0156 0.0341,-0.0451 0.0705,-0.0931 0.10938,-0.14258 0.0432,-0.0549 0.0887,-0.11118 0.13672,-0.16992 7e-4,-8.7e-4 1.6863,-1.70739 1.68554,-1.70704 5.18176,-2.45452 9.19555,-7.53056 11.48829,-10.39648 2.4887,-3.11088 3.63902,-6.40591 4.49609,-8.11133 0.60947,-1.21274 1.17028,-2.13649 2.35156,-3.369139 4.78271,-4.990652 3.71359,-11.063208 2.44531,-14.892579 -0.14812,-0.447225 -2.03005,-5.49114 -2.02929,-5.322265 -0.0115,-2.545778 0.18541,-3.115015 0.53125,-4.636719 0.19347,-0.8513 1.69403,-5.48096 1.27929,-9.150391 3.72181,-2.241611 5.98202,-7.168025 6.69922,-11.013671 0.38602,-2.069829 0.77655,-5.930577 -1.83593,-8.910157 0.25867,-1.055868 0.47193,-2.179602 0.61132,-3.359375 0.17968,-1.520773 0.93034,-7.360107 -0.67187,-10.572265 -2.15397,-4.318323 -8.2319,-5.696472 -11.87305,-1.548828 -1.51424,1.724875 -2.07165,4.082172 -2.30859,4.996093 -1.40938,5.43615 -3.13639,8.813355 -4.61328,10.992188 -0.36697,-0.02843 -0.76,-0.05141 -1.18164,-0.07031 -0.61707,-0.02766 -1.29099,-0.04337 -2.03321,-0.04297 -0.0281,-0.0081 -0.065,-0.02011 -0.10937,-0.03711 -0.35395,-0.135756 -1.1383,-0.568665 -1.91602,-1.207031 -1.29619,-1.063943 -2.56201,-2.733698 -2.98633,-3.691406 -1.37016,-3.092512 -2.18659,-5.379831 -2.68945,-6.882813 -0.16762,-0.500994 -0.57969,-1.850744 -0.85742,-2.523437 -0.0675,-0.163502 -0.88375,-2.227138 -2.94336,-3.462891 -0.90922,-0.545527 -2.31885,-1.127366 -4.0957,-1.056641 z"
     sodipodi:nodetypes="sssssscssssssssssccsssssssscsssssccssscsssssscsssscssssssssss"
     inkscape:path-effect="#path-effect18"
     inkscape:original-d="m 120.61631,34.097656 c -0.60459,-0.362751 -0.95227,0.804141 -0.97565,3.616317 -0.0486,5.847629 5.42563,12.721784 4.3031,11.973429 -1.12253,-0.748356 -4.53154,-1.616758 -3.64371,2.847889 1.03759,5.217731 3.81769,7.683768 5.3144,7.683768 1.49671,0 2.25736,0.409291 2.77392,2.097 0.48456,1.58315 0.26243,2.681879 -0.32859,4.022523 -0.56127,0.935445 -0.18701,4.396343 -0.74827,7.109127 -0.49422,2.388755 -0.93542,5.23848 -5.05137,4.864303 -4.11595,-0.374179 -8.60601,1.496964 -20.01842,2.432409 -11.412407,0.935443 -23.199118,-2.806487 -27.876335,-3.367753 -4.677217,-0.561266 -6.547917,1.122708 -11.412224,3.180685 -2.63938,1.735637 -8.011571,3.246012 -9.91619,5.425508 -1.683798,2.245064 -4.30256,8.793173 -4.489649,9.635073 -0.18709,0.8419 -1.777761,8.231726 -1.403582,11.318686 0.374177,3.08697 4.303099,9.72876 4.770819,8.23205 1.416483,-4.5327 -5.866795,-7.87503 -2.057756,-13.37696 0.48687,-0.70326 0.94237,-1.35105 1.360641,-1.938376 1.844795,7.158076 7.993827,14.754136 7.993827,14.754136 0,0 4.240192,6.31397 3.744991,8.09669 -0.661458,2.38125 -4.233333,7.14375 -5.55625,8.33437 -1.322916,1.19063 -2.248959,1.98438 -1.322917,7.14375 0.926041,5.15938 1.190625,19.97604 1.5875,21.82813 0.396875,1.85208 0.529166,4.63021 1.190625,4.63021 0.88577,0.006 8.316986,2.5339 6.217709,-1.05834 -0.926042,-1.45521 -1.587501,-2.64583 -1.852084,-4.23333 -0.264584,-1.5875 -1.455208,-13.09688 -0.264583,-15.61042 0.460358,-0.97186 0.624241,-1.54796 0.743624,-2.04225 0.48867,2.02011 3.012252,12.4614 3.489709,14.60996 2.676323,12.04344 9.257389,10.22347 5.159375,0.66146 -0.396875,-0.92604 -3.96875,-7.67292 -2.910416,-14.41979 0.764699,-4.87496 2.539316,-13.65497 6.085416,-20.24063 1.400363,-2.60066 9.332494,-4.46421 11.563636,-4.14548 2.462414,0.35178 17.822614,1.19964 22.451344,0.83354 0.57987,2.41701 1.69313,7.08157 2.83497,11.99307 0.0505,2.22518 0.12108,4.92561 0.19172,6.26783 0.13229,2.51354 0.79375,5.55625 0.79375,6.87917 0,1.32291 0,14.02292 1.19062,14.02292 0.5287,0 0.95296,0.15647 1.3193,0.20309 0.0682,1.63963 2.44236,3.1042 3.84008,3.1042 1.45521,0 2.38125,0 3.83646,-0.52917 1.45521,-0.52917 1.32291,-1.85208 -0.26459,-2.64583 -1.5875,-0.79375 -2.77812,-5.42396 -2.91041,-9.39271 -0.13229,-3.96875 0.92604,-7.54063 1.05833,-11.77396 0.13229,-4.23333 1.71979,-13.89063 2.38125,-16.27187 0.32757,-1.17926 3.31565,-4.80785 5.55884,-5.87045 3.55468,-1.6838 6.51816,-5.31874 9.01662,-8.44182 2.99342,-3.74178 2.95738,-7.461116 7.26042,-11.951246 4.30304,-4.490125 -1.51101,-11.324358 -1.52911,-15.341279 -0.0141,-3.130409 0.37059,-4.746343 0.70487,-6.217191 0.46772,-2.057976 1.48578,-5.183644 1.12293,-6.990172 -0.82535,-4.108638 0.94089,-5.16573 3.35798,-6.59908 1.13789,-0.674773 2.84319,-3.090898 3.4432,-6.308142 0.75776,-4.063101 -1.19572,-3.870065 -3.2309,-2.295477 -4.20324,3.251988 1.02834,-1.836837 1.9354,-9.513959 0.60541,-5.124037 0.1951,-9.644979 -1.12709,-4.545121 -1.96444,7.577091 -4.67739,12.161192 -6.92245,14.967522 -2.24507,2.806329 -0.69862,1.121565 -7.86033,1.15447 -3.80809,0.0175 -9.21078,-4.537655 -11.23193,-9.09948 -2.72834,-6.157976 -3.50632,-9.59125 -3.69252,-9.702969 z"
     transform="matrix(1.341947,0,0,1.341947,-34.195545,-34.114691)" /><path
     id="path18"
     style="display:inline;fill:#d35f00;fill-opacity:1;stroke-width:9.39363;stroke-linecap:round;stroke-linejoin:round;paint-order:stroke fill markers"
     d="m 127.66516,11.642558 c -0.81133,-0.486793 -1.2779,1.079115 -1.30927,4.852906 -0.0652,7.847208 7.2809,17.07196 5.77453,16.067708 -1.50638,-1.004254 -6.08109,-2.169604 -4.88967,3.821716 1.39239,7.001919 5.12314,10.31121 7.13165,10.31121 2.0085,0 3.02925,0.549247 3.72245,2.814063 0.65025,2.124503 0.35217,3.598939 -0.44095,5.398013 -0.7532,1.255317 -0.25096,5.899659 -1.00414,9.540071 -0.66322,3.205583 -1.25528,7.029763 -6.77867,6.527638 -5.52339,-0.502129 -11.54881,2.008846 -26.86366,3.264164 C 87.692584,75.495362 71.875442,70.47389 65.598864,69.7207 c -6.276578,-0.753189 -8.786958,1.506615 -15.3146,4.268311 -3.541908,2.329133 -10.751104,4.355976 -13.307002,7.280745 -2.259568,3.012757 -5.773808,11.799972 -6.024871,12.929757 -0.251065,1.129786 -2.385662,11.046537 -1.883533,15.189077 0.502126,4.14255 1.757948,6.02538 1.757948,7.6573 0,1.63191 2.259526,6.02535 1.004212,7.90833 0,0 3.012371,-2.51015 3.640026,-4.51865 0.62766,-2.0085 0.12566,-4.26813 -1.129663,-5.90005 -1.255313,-1.63191 -5.021088,-7.15541 -1.631736,-12.05113 0.653354,-0.94373 1.26461,-1.81303 1.825908,-2.601194 2.475617,9.605754 10.727292,19.799274 10.727292,19.799274 0,0 5.690114,8.47301 5.02558,10.86532 -0.887642,3.19552 -5.680909,9.58654 -7.456193,11.18429 -1.775283,1.59776 -3.017984,2.66293 -1.775285,9.58653 1.242698,6.92362 1.597756,26.80679 2.130341,29.2922 0.532585,2.48539 0.710113,6.21349 1.597756,6.21349 0.887641,0 2.30787,-1.06517 3.017984,0.17753 0.710114,1.2427 1.420227,2.13034 3.550568,1.2427 2.13034,-0.88765 3.017982,-0.88765 1.775284,-2.84046 -1.242699,-1.95282 -2.130342,-3.55057 -2.485399,-5.68091 -0.355057,-2.13034 -1.952812,-17.57532 -0.355056,-20.94835 0.617776,-1.30419 0.837698,-2.07729 0.997904,-2.7406 0.655769,2.71088 4.042283,16.72254 4.683005,19.6058 0.710114,3.19551 0,4.61573 1.242699,5.85844 1.242699,1.2427 2.662926,3.55056 4.083153,3.19551 1.420228,-0.35506 4.793267,0.71011 4.970796,-0.35506 0.177529,-1.06517 -2.840455,-6.56855 -3.37304,-7.81125 -0.532585,-1.2427 -5.325852,-10.29665 -3.905624,-19.35059 1.026185,-6.54194 3.407627,-18.32425 8.166306,-27.16186 1.879213,-3.48995 12.523713,-5.99073 15.517787,-5.56301 3.304429,0.47207 23.917009,1.60985 30.128519,1.11856 0.77815,3.2435 2.27209,9.5031 3.80438,16.09407 0.0678,2.98607 0.16248,6.60991 0.25727,8.4111 0.17753,3.37303 1.06517,7.45619 1.06517,9.23148 0,1.77527 -1.95281,11.18428 -2.48539,16.51013 0,0 2.48539,2.30788 4.08314,2.30788 0.70949,0 1.27882,0.20998 1.77043,0.27254 0.0915,2.2003 3.27752,4.16567 5.15319,4.16567 1.95281,0 3.19551,0 5.14832,-0.71012 1.95282,-0.71011 1.77528,-2.48539 -0.35506,-3.55056 -2.13034,-1.06517 -3.72809,-7.27867 -3.90562,-12.60452 -0.17752,-5.32585 1.2427,-10.11913 1.42022,-15.80003 0.17753,-5.68091 2.30787,-18.64049 3.19552,-21.83599 0.43958,-1.5825 4.44942,-6.45188 7.45967,-7.87783 4.77019,-2.25957 8.74702,-7.13747 12.09982,-11.32848 4.01701,-5.02127 3.96865,-10.01242 9.7431,-16.037937 5.77445,-6.02551 -2.02769,-15.196688 -2.05198,-20.587184 -0.0189,-4.200843 0.49731,-6.369341 0.94589,-8.343141 0.62766,-2.761695 1.99384,-6.956175 1.50692,-9.38044 -1.10758,-5.513575 1.26262,-6.932137 4.50623,-8.855616 1.52699,-0.90551 3.81541,-4.147822 4.62059,-8.465193 1.01687,-5.452466 -1.60459,-5.193422 -4.3357,-3.080408 -5.64052,4.363995 1.37998,-2.464938 2.59721,-12.76723 0.81243,-6.876186 0.26181,-12.9430507 -1.5125,-6.099311 -2.63617,10.168055 -6.27681,16.319675 -9.28956,20.085622 -3.01276,3.765945 -0.93751,1.50508 -10.54814,1.549237 -5.11026,0.02348 -12.36038,-6.089293 -15.07266,-12.21102 -3.66129,-8.263678 -4.7053,-12.87095 -4.95517,-13.020871 z"
     sodipodi:nodetypes="sssssscssssssssscsssccsssssssssscssssssssccsscscsssssscsssscssssssssss" /></svg>
