<?xml version="1.0" encoding="UTF-8" standalone="no"?>
<!-- Created with Inkscape (http://www.inkscape.org/) -->

<svg
   width="200mm"
   height="200mm"
   viewBox="0 0 200 200"
   version="1.1"
   id="svg1"
   inkscape:version="1.4.2 (f4327f4, 2025-05-13)"
   sodipodi:docname="Tak.svg"
   xml:space="preserve"
   xmlns:inkscape="http://www.inkscape.org/namespaces/inkscape"
   xmlns:sodipodi="http://sodipodi.sourceforge.net/DTD/sodipodi-0.dtd"
   xmlns="http://www.w3.org/2000/svg"
   xmlns:svg="http://www.w3.org/2000/svg"><sodipodi:namedview
     id="namedview1"
     pagecolor="#ffffff"
     bordercolor="#000000"
     borderopacity="0.25"
     inkscape:showpageshadow="2"
     inkscape:pageopacity="0.0"
     inkscape:pagecheckerboard="0"
     inkscape:deskcolor="#d1d1d1"
     inkscape:document-units="mm"
     inkscape:zoom="0.70710678"
     inkscape:cx="285.67114"
     inkscape:cy="516.89506"
     inkscape:window-width="1920"
     inkscape:window-height="1051"
     inkscape:window-x="-9"
     inkscape:window-y="-9"
     inkscape:window-maximized="1"
     inkscape:current-layer="svg1" /><defs
     id="defs1"><inkscape:path-effect
       effect="offset"
       id="path-effect1"
       is_visible="true"
       lpeversion="1.3"
       linejoin_type="miter"
       unit="mm"
       offset="7"
       miter_limit="1"
       attempt_force_join="false"
       update_on_knot_move="true" /><inkscape:path-effect
       effect="offset"
       id="path-effect3"
       is_visible="true"
       lpeversion="1.3"
       linejoin_type="miter"
       unit="mm"
       offset="0"
       miter_limit="4"
       attempt_force_join="false"
       update_on_knot_move="true" /><inkscape:path-effect
       effect="offset"
       id="path-effect7"
       is_visible="true"
       lpeversion="1.3"
       linejoin_type="miter"
       unit="mm"
       offset="7"
       miter_limit="1"
       attempt_force_join="false"
       update_on_knot_move="true" /><inkscape:path-effect
       effect="offset"
       id="path-effect6"
       is_visible="true"
       lpeversion="1.3"
       linejoin_type="miter"
       unit="mm"
       offset="10.556173"
       miter_limit="1"
       attempt_force_join="false"
       update_on_knot_move="true" /><inkscape:path-effect
       effect="offset"
       id="path-effect2"
       is_visible="true"
       lpeversion="1.3"
       linejoin_type="miter"
       unit="mm"
       offset="7"
       miter_limit="4"
       attempt_force_join="false"
       update_on_knot_move="true" /><filter
       y="-0.063874501"
       height="1.127749"
       inkscape:menu-tooltip="Darkens the edge with an inner blur and adds a flexible glow"
       inkscape:menu="Shadows and Glows"
       inkscape:label="Dark and Glow"
       style="color-interpolation-filters:sRGB;"
       id="filter2"
       x="-0.1141484"
       width="1.2282968"><feGaussianBlur
         stdDeviation="5"
         result="result6"
         id="feGaussianBlur1" /><feComposite
         result="result8"
         in="SourceGraphic"
         operator="atop"
         in2="result6"
         id="feComposite1" /><feComposite
         result="result9"
         operator="over"
         in2="SourceAlpha"
         in="result8"
         id="feComposite2" /><feColorMatrix
         values="1 0 0 0 0 0 1 0 0 0 0 0 1 0 0 0 0 0 1 0 "
         result="result10"
         id="feColorMatrix2" /><feBlend
         in="result10"
         mode="normal"
         in2="result6"
         id="feBlend2" /></filter><filter
       inkscape:label="In and Out"
       inkscape:menu="Shadows and Glows"
       inkscape:menu-tooltip="Inner colorized shadow, outer black shadow"
       style="color-interpolation-filters:sRGB;"
       id="filter3"
       x="-0.091318721"
       y="-0.051099601"
       width="1.2301993"
       height="1.1288136"><feGaussianBlur
         result="result0"
         in="SourceAlpha"
         stdDeviation="4"
         id="feGaussianBlur2" /><feOffset
         dx="5"
         dy="5"
         result="result4"
         id="feOffset2" /><feComposite
         in="SourceGraphic"
         in2="result4"
         operator="xor"
         result="result3"
         id="feComposite3" /></filter><filter
       inkscape:label="Inset"
       inkscape:menu="Shadows and Glows"
       inkscape:menu-tooltip="Shadowy outer bevel"
       style="color-interpolation-filters:sRGB;"
       id="filter5"
       x="-0.11643137"
       y="-0.065151989"
       width="1.2328627"
       height="1.130304"><feMorphology
         result="result1"
         in="SourceAlpha"
         operator="dilate"
         radius="3.6"
         id="feMorphology3" /><feGaussianBlur
         stdDeviation="3.6"
         in="result1"
         result="result0"
         id="feGaussianBlur3" /><feDiffuseLighting
         surfaceScale="-5"
         id="feDiffuseLighting3"><feDistantLight
           elevation="45"
           azimuth="225"
           id="feDistantLight3" /></feDiffuseLighting><feComposite
         in2="result0"
         operator="in"
         result="result91"
         id="feComposite4" /><feComposite
         in="SourceGraphic"
         in2="result91"
         id="feComposite5" /></filter><filter
       y="-0.063874501"
       height="1.127749"
       inkscape:menu-tooltip="Darkens the edge with an inner blur and adds a flexible glow"
       inkscape:menu="Shadows and Glows"
       inkscape:label="Dark and Glow"
       style="color-interpolation-filters:sRGB;"
       id="filter7"
       x="-0.1141484"
       width="1.2282968"><feGaussianBlur
         stdDeviation="5"
         result="result6"
         id="feGaussianBlur5" /><feComposite
         result="result8"
         in="SourceGraphic"
         operator="atop"
         in2="result6"
         id="feComposite6" /><feComposite
         result="result9"
         operator="over"
         in2="SourceAlpha"
         in="result8"
         id="feComposite7" /><feColorMatrix
         values="1 0 0 0 0 0 1 0 0 0 0 0 1 0 0 0 0 0 1 0 "
         result="result10"
         id="feColorMatrix7" /><feBlend
         in="result10"
         mode="normal"
         in2="result6"
         id="feBlend7" /></filter><filter
       style="color-interpolation-filters:sRGB;"
       inkscape:label="Poster Paint"
       id="filter89"
       x="-0.10296186"
       y="-0.0576148"
       width="1.2059237"
       height="1.1152296"><feComposite
         operator="arithmetic"
         k2="1"
         result="composite1"
         id="feComposite87" /><feGaussianBlur
         stdDeviation="4"
         result="blur1"
         id="feGaussianBlur87" /><feGaussianBlur
         in="composite1"
         stdDeviation="0.5"
         result="blur2"
         id="feGaussianBlur88" /><feBlend
         in2="blur1"
         mode="lighten"
         result="blend"
         id="feBlend88" /><feColorMatrix
         type="saturate"
         values="1"
         result="color1"
         id="feColorMatrix88" /><feComponentTransfer
         result="component"
         id="feComponentTransfer88"><feFuncR
           type="discrete"
           tableValues="0 0.0833333 0.166667 0.25 0.333333 0.416667 0.5 0.583333 0.666667 0.75 0.833333 0.916667 1 1"
           id="feFuncR88" /><feFuncG
           type="discrete"
           tableValues="0 0.0833333 0.166667 0.25 0.333333 0.416667 0.5 0.583333 0.666667 0.75 0.833333 0.916667 1 1"
           id="feFuncG88" /><feFuncB
           type="discrete"
           tableValues="0 0.0833333 0.166667 0.25 0.333333 0.416667 0.5 0.583333 0.666667 0.75 0.833333 0.916667 1 1"
           id="feFuncB88" /></feComponentTransfer><feColorMatrix
         type="saturate"
         values="1"
         result="color2"
         id="feColorMatrix89" /><feGaussianBlur
         stdDeviation="0.01"
         result="blur3"
         id="feGaussianBlur89" /><feComposite
         in2="SourceGraphic"
         operator="in"
         result="composite3"
         id="feComposite89" /></filter><filter
       inkscape:menu="Shadows and Glows"
       inkscape:menu-tooltip="Cut out, add inner shadow and colorize some parts of an image"
       style="color-interpolation-filters:sRGB;"
       inkscape:label="Emergence"
       id="filter95"
       x="-0.068489041"
       y="-0.038324701"
       width="1.1655152"
       height="1.092618"><feColorMatrix
         values="0 0 0 0 0 0 0 0 0 0 0 0 0 0 0 0.21 0.72 0.07 0 0 "
         result="result1"
         id="feColorMatrix90" /><feColorMatrix
         values="1 0 0 0 0 0 1 0 0 0 0 0 1 0 0 0 0 0 2 0 "
         result="result9"
         id="feColorMatrix91" /><feComposite
         in2="result9"
         in="SourceGraphic"
         operator="in"
         result="result4"
         id="feComposite91" /><feFlood
         result="result2"
         flood-color="rgb(0,0,0)"
         id="feFlood91" /><feComposite
         in2="result9"
         operator="in"
         result="result10"
         id="feComposite92" /><feComposite
         in2="result4"
         operator="atop"
         id="feComposite93" /><feGaussianBlur
         stdDeviation="3"
         result="result8"
         id="feGaussianBlur93" /><feOffset
         dx="3"
         dy="3"
         result="result3"
         in="result8"
         id="feOffset93" /><feFlood
         flood-opacity="1"
         flood-color="rgb(219,173,62)"
         result="result5"
         id="feFlood93" /><feMerge
         result="result6"
         id="feMerge95"><feMergeNode
           in="result5"
           id="feMergeNode93" /><feMergeNode
           in="result3"
           id="feMergeNode94" /><feMergeNode
           in="result4"
           id="feMergeNode95" /></feMerge><feComposite
         in2="SourceGraphic"
         operator="in"
         result="result7"
         id="feComposite95" /></filter><filter
       y="-0.063874501"
       height="1.127749"
       inkscape:menu-tooltip="Darkens the edge with an inner blur and adds a flexible glow"
       inkscape:menu="Shadows and Glows"
       inkscape:label="Dark and Glow"
       style="color-interpolation-filters:sRGB;"
       id="filter98"
       x="-0.1141484"
       width="1.2282968"><feGaussianBlur
         stdDeviation="5"
         result="result6"
         id="feGaussianBlur97" /><feComposite
         result="result8"
         in="SourceGraphic"
         operator="atop"
         in2="result6"
         id="feComposite97" /><feComposite
         result="result9"
         operator="over"
         in2="SourceAlpha"
         in="result8"
         id="feComposite98" /><feColorMatrix
         values="1 0 0 0 0 0 1 0 0 0 0 0 1 0 0 0 0 0 1 0 "
         result="result10"
         id="feColorMatrix98" /><feBlend
         in="result10"
         mode="normal"
         in2="result6"
         id="feBlend98" /></filter></defs><path
     id="path2"
     style="display:inline;fill:#ffffff;fill-opacity:1;stroke-width:2.20098;stroke-linecap:round;stroke-linejoin:round;paint-order:stroke fill markers"
     d="m 137.14258,25.28125 c -1.26442,0.0083 -3.491,0.114214 -4.80469,0.376953 -0.74936,0.149872 -2.9982,0.591336 -4.74219,2.703125 -1.37541,1.66548 -1.78122,3.408261 -1.6582,4.990234 -7.38895,1.410549 -17.4009,4.350147 -20.35742,5.582032 0.20286,-0.08453 -0.78755,0.260511 -2.04297,0.576172 -1.88313,0.473491 -4.687058,1.081577 -7.929688,1.716796 -8.106576,1.58805 -19.078651,3.37571 -27.035156,4.259766 -15.395053,1.710562 -28.542789,10.712108 -41.22461,16.912109 -17.9389545,8.770155 -16.815542,26.492088 -17.099609,33.59375 -0.111266,2.781648 0.661457,5.660443 1.527344,7.835943 2.592987,6.51475 8.448819,13.53098 10.509765,16.18945 -0.01201,0.0585 -0.02545,0.11793 -0.03906,0.17969 -0.3533,1.60282 -1.507697,4.35184 -1.580078,4.47851 -2.718921,4.75814 -1.706058,10.11881 -0.675782,13.89649 -1.87e-4,-6.9e-4 -0.05064,3.86499 -0.05078,3.86718 -0.109837,1.68686 -0.808594,8.31641 -0.808594,9.92188 0,4.32294 4.597898,13.20522 6.632813,17.06054 l 2.308594,2.55665 c 4.472857,2.98189 12.274604,2.11852 16.455078,1.37109 l 0.68164,-3.71289 c 5.365727,4.32519 16.24063,5.32144 19.31836,5.01367 6.427285,-0.64274 10.685229,-6.67615 6.773437,-12.89844 -1.260325,-2.00473 -3.233307,-3.71051 -4.986328,-5.08789 5.01e-4,4e-4 -0.874427,-1.62766 -0.875,-1.6289 -0.586826,-1.27694 -1.163582,-3.02469 -1.523437,-4.62891 -0.07197,-0.32084 -0.135914,-0.63523 -0.191407,-0.93945 -0.0431,-0.23626 -0.08073,-0.46538 -0.113281,-0.68555 3.561213,-2.18297 6.347306,-5.52309 7.925781,-7.10156 3.108328,-3.10834 4.174774,-7.43563 4.681641,-10.05469 0.06064,-0.31332 0.222988,-1.30403 0.376953,-2.29102 0.118814,-0.0366 0.240532,-0.0726 0.365234,-0.10937 0.230169,-0.0678 0.470732,-0.13644 0.716797,-0.20313 1.47639,-0.4001 3.194939,-0.75824 4.634766,-0.95898 0.203632,-0.0284 0.401675,-0.054 0.591797,-0.0762 0.317938,0.84778 0.644022,1.87984 0.873047,2.8457 3.89e-4,0.002 0.443222,2.8074 0.443359,2.80664 -0.458296,2.5206 -2.449351,11.70685 1.59375,17.09766 3.518687,4.69159 9.17974,3.92681 11.634766,3.42578 0.366659,-0.0748 0.800198,-0.17566 1.236328,-0.2832 3.003813,5.29221 11.111053,6.30041 13.857423,6.65625 2.3336,0.30235 5.85556,0.56297 7.9375,0.30273 1.19008,-0.14876 6.74283,-1.36036 6.83203,-7.16797 0.0358,-2.33032 -0.98297,-3.8532 -1.50781,-4.54687 -1.1809,-1.56076 -3.28107,-2.80427 -3.64453,-3.0586 -0.40869,-0.28597 -0.75654,-0.57507 -0.99219,-0.77929 -0.002,-0.0176 -0.004,-0.0361 -0.006,-0.0547 -0.004,-0.0605 -0.007,-0.12577 -0.01,-0.19531 -0.003,-0.0773 -0.004,-0.15822 -0.004,-0.24414 0.001,-0.51553 0.0705,-1.16232 0.17578,-1.68946 0.0158,-0.0791 0.0322,-0.15583 0.0488,-0.22851 0.015,-0.0654 0.0299,-0.1288 0.0449,-0.1875 0.0136,-0.0528 0.028,-0.10229 0.041,-0.14844 0.0118,-0.0415 0.0224,-0.0801 0.0332,-0.11524 0.005,-0.0162 0.0109,-0.0322 0.0156,-0.0469 -0.0721,0.11583 -0.19913,0.29774 -0.41406,0.56641 0.1493,-0.18662 0.28599,-0.37758 0.41406,-0.57032 0.004,-0.0123 0.008,-0.0241 0.0117,-0.0352 0.008,-0.023 0.0153,-0.0432 0.0215,-0.0606 0.0121,-0.0339 0.0303,-0.0616 0.041,-0.0723 l 0.002,-0.002 h 0.002 l 0.002,-0.002 h 0.002 v 0.002 h 0.002 v 0.002 0.002 0.002 c -7.1e-4,0.008 -0.005,0.0222 -0.0156,0.0449 0.9562,-1.4929 1.32496,-3.08798 1.47461,-3.93164 0.69201,-3.9012 0.0554,-9.61845 -0.16015,-11.55859 0.0258,0.23233 0.0163,-1.42508 0.26171,-3.125 0.35537,-2.46173 1.11879,-5.61197 1.70508,-7.21484 0.016,-0.002 0.0331,-0.004 0.0488,-0.006 4.51325,-0.45132 7.71688,-3.22802 8.42969,-7.4961 0.21985,-1.31641 0.11156,-3.18252 0.0508,-4.12304 0.0125,-0.0341 0.0268,-0.0697 0.041,-0.10743 0.0233,-0.0618 0.0484,-0.12887 0.0762,-0.19922 0.0309,-0.0782 0.0656,-0.16067 0.10156,-0.24804 0.86419,-2.09683 3.06667,-6.225007 4.83398,-9.208987 7.7e-4,-0.0013 0.96867,-1.543387 1.61524,-2.572266 0.0653,-0.01576 0.13414,-0.03267 0.20508,-0.04883 0.12837,-0.02923 0.26576,-0.05799 0.41015,-0.08789 1.19101,-0.246597 5.4114,-0.832616 7.8086,-1.351563 0.0467,0.01281 0.0977,0.02858 0.15234,0.04492 0.0724,0.02166 0.1497,0.04646 0.23437,0.07422 0.0941,0.03085 0.19581,0.06547 0.30274,0.103515 0.71286,0.253618 1.67028,0.662044 2.69726,1.132813 1.46425,0.671214 6.28817,3.28125 9.73633,3.28125 4.36205,0 7.1615,-2.692548 8.55469,-4.251953 0.24964,-0.279421 1.2637,-1.429634 1.7793,-2.013672 0.0335,-0.0044 0.0689,-0.0093 0.10547,-0.01367 0.0833,-0.01 0.17316,-0.01973 0.27148,-0.0293 0.10925,-0.01063 0.22763,-0.02138 0.35352,-0.03125 1.50474,-0.118028 6.13372,-0.06273 9.60937,-1.642578 7.68552,-3.493407 7.2761,-12.781729 7.43164,-14.181641 0.60335,-5.430252 -3.79389,-9.417416 -5.0918,-10.683593 -0.1088,-0.106142 -0.21565,-0.20885 -0.31445,-0.304688 -0.0896,-0.08693 -0.17588,-0.170206 -0.25586,-0.248047 -0.072,-0.07006 -0.13826,-0.13539 -0.20117,-0.197265 -0.0219,-0.02156 -0.0437,-0.04202 -0.0644,-0.0625 -0.66993,-1.924997 -2.6356,-6.983374 -6.1875,-10.140625 0.0307,0.0273 0.0528,0.04294 0.0625,0.04687 v 0.002 h 0.002 0.002 v -0.002 l 0.002,-0.002 v -0.002 h -0.002 v -0.002 c -0.0277,-0.09734 -0.80296,-1.072549 -1.52734,-2.382812 -0.46584,-0.842622 -1.12236,-2.109277 -1.80859,-3.376953 0.0598,-1.9561 -0.3593,-3.849284 -1.18555,-5.591797 -3.86438,-8.149724 -16.94061,-11.829214 -21.5625,-13.384766 -3.15674,-1.06244 -10.50329,-1.857707 -14.43164,-1.832031 z"
     sodipodi:nodetypes="ssscsssssssssccsscssssssssssssccsssssssssssssssscss"
     inkscape:path-effect="#path-effect1"
     inkscape:original-d="m 137.18752,32.281768 c -1.46544,0.0096 -2.71058,0.0862 -3.47682,0.239449 -3.06495,0.612991 3.37146,2.758463 12.56633,4.290941 4.56225,0.760375 6.70965,2.72811 7.71567,4.517819 -8.38593,-1.172858 -18.97049,-1.759357 -21.81448,-1.759357 -4.59744,0 -20.22872,4.29094 -23.90667,5.823419 -3.67795,1.532478 -25.132651,5.516925 -38.92496,7.049403 C 55.554281,53.975921 44.213939,61.94481 30.421629,68.687717 16.62932,75.430623 17.548807,88.609942 17.242311,96.272335 c -0.306495,7.662395 11.033847,19.309245 11.953335,21.454705 0.919487,2.14547 -1.225982,8.27539 -2.451966,10.42085 -1.225982,2.14548 -0.919487,5.21044 0,8.58189 0.919488,3.37145 -0.612991,12.87282 -0.612991,15.63129 0,2.75846 5.823418,13.79231 5.823418,13.79231 2.758462,1.83897 11.340344,0.30649 11.340344,0.30649 0,0 -3.064957,-1.83898 -4.597436,-4.29095 -1.532479,-2.45197 -0.919489,-6.4364 -1.225984,-9.80785 -0.306496,-3.37145 2.451967,-11.34035 2.451967,-11.34035 0,0 2.145471,2.14546 3.371453,4.59743 1.225983,2.45197 0,5.21045 1.225983,9.50138 1.225984,4.29094 3.064958,6.12991 4.597436,8.58188 1.532479,2.45195 11.646839,4.29093 14.711797,3.98444 3.064957,-0.3065 2.451966,-2.14547 -1.838975,-5.51693 -4.29094,-3.37145 -7.355899,-17.77675 -4.290941,-18.38974 3.064957,-0.613 5.82342,-3.98444 8.888377,-7.0494 3.064954,-3.06496 3.064954,-10.11436 3.677949,-11.95333 0.612996,-1.83898 14.711797,-5.21043 16.857263,-3.37146 2.145478,1.83898 4.597436,10.11436 3.984453,13.48582 -0.612996,3.37144 -1.532483,9.19486 0.306492,11.64683 1.838974,2.45197 7.355898,-0.30649 9.501365,-0.30649 2.14548,0 0.30651,-7.66239 0.30651,-7.66239 l 2.14546,0.91948 c 0,0 0.613,7.0494 1.22598,10.42086 0.613,3.37144 12.56633,4.29093 15.0183,3.98444 2.45196,-0.30649 -2.14548,-1.83898 -4.29094,-4.59744 -2.14547,-2.75846 -0.91949,-9.19486 0.30649,-10.72734 1.22599,-1.53247 0.61299,-8.27539 0.3065,-11.03385 -0.3065,-2.75846 0.91949,-9.80787 2.45196,-13.79231 1.53248,-3.98445 2.75846,-3.98445 5.82343,-4.29094 3.06495,-0.30649 2.14546,-2.45197 2.14546,-5.21043 0,-2.75847 7.3559,-15.324793 8.88839,-17.163768 1.53247,-1.838974 8.88836,-2.145471 12.25982,-3.064958 3.37145,-0.919487 11.34034,4.597436 14.0988,4.597436 2.75846,0 3.98444,-3.371452 6.43641,-5.210427 2.45197,-1.838974 7.96891,-0.612992 11.34035,-2.145471 3.37146,-1.532478 3.06496,-5.823419 3.37145,-8.58188 0.30649,-2.758462 -4.59743,-5.823419 -5.21042,-7.355899 -0.61298,-1.532479 -1.83898,-5.823419 -4.59744,-8.275385 -2.0095,-1.786226 -3.85618,-6.175087 -5.89586,-9.611515 2.30944,-7.165806 -10.21092,-11.160176 -17.70431,-13.682162 -1.57104,-0.528753 -7.75818,-1.494167 -12.15447,-1.465433 z" /><path
     id="path3"
     style="display:inline;fill:#d35f00;fill-opacity:1;stroke-width:2.20098;stroke-linecap:round;stroke-linejoin:round;paint-order:stroke fill markers"
     d="m 137.18752,32.281768 c -1.46544,0.0096 -2.71058,0.0862 -3.47682,0.239449 -3.06495,0.612991 3.37146,2.758463 12.56633,4.290941 4.56225,0.760375 6.70965,2.72811 7.71567,4.517819 -8.38593,-1.172858 -18.97049,-1.759357 -21.81448,-1.759357 -4.59744,0 -20.22872,4.29094 -23.90667,5.823419 -3.67795,1.532478 -25.132651,5.516925 -38.92496,7.049403 C 55.554281,53.975921 44.213939,61.94481 30.421629,68.687717 16.62932,75.430623 17.548807,88.609942 17.242311,96.272335 c -0.306495,7.662395 11.033847,19.309245 11.953335,21.454705 0.919487,2.14547 -1.225982,8.27539 -2.451966,10.42085 -1.225982,2.14548 -0.919487,5.21044 0,8.58189 0.919488,3.37145 -0.612991,12.87282 -0.612991,15.63129 0,2.75846 5.823418,13.79231 5.823418,13.79231 2.758462,1.83897 11.340344,0.30649 11.340344,0.30649 0,0 -3.064957,-1.83898 -4.597436,-4.29095 -1.532479,-2.45197 -0.919489,-6.4364 -1.225984,-9.80785 -0.306496,-3.37145 2.451967,-11.34035 2.451967,-11.34035 0,0 2.145471,2.14546 3.371453,4.59743 1.225983,2.45197 0,5.21045 1.225983,9.50138 1.225984,4.29094 3.064958,6.12991 4.597436,8.58188 1.532479,2.45195 11.646839,4.29093 14.711797,3.98444 3.064957,-0.3065 2.451966,-2.14547 -1.838975,-5.51693 -4.29094,-3.37145 -7.355899,-17.77675 -4.290941,-18.38974 3.064957,-0.613 5.82342,-3.98444 8.888377,-7.0494 3.064954,-3.06496 3.064954,-10.11436 3.677949,-11.95333 0.612996,-1.83898 14.711797,-5.21043 16.857263,-3.37146 2.145478,1.83898 4.597436,10.11436 3.984453,13.48582 -0.612996,3.37144 -1.532483,9.19486 0.306492,11.64683 1.838974,2.45197 7.355898,-0.30649 9.501365,-0.30649 2.14548,0 0.30651,-7.66239 0.30651,-7.66239 l 2.14546,0.91948 c 0,0 0.613,7.0494 1.22598,10.42086 0.613,3.37144 12.56633,4.29093 15.0183,3.98444 2.45196,-0.30649 -2.14548,-1.83898 -4.29094,-4.59744 -2.14547,-2.75846 -0.91949,-9.19486 0.30649,-10.72734 1.22599,-1.53247 0.61299,-8.27539 0.3065,-11.03385 -0.3065,-2.75846 0.91949,-9.80787 2.45196,-13.79231 1.53248,-3.98445 2.75846,-3.98445 5.82343,-4.29094 3.06495,-0.30649 2.14546,-2.45197 2.14546,-5.21043 0,-2.75847 7.3559,-15.324793 8.88839,-17.163768 1.53247,-1.838974 8.88836,-2.145471 12.25982,-3.064958 3.37145,-0.919487 11.34034,4.597436 14.0988,4.597436 2.75846,0 3.98444,-3.371452 6.43641,-5.210427 2.45197,-1.838974 7.96891,-0.612992 11.34035,-2.145471 3.37146,-1.532478 3.06496,-5.823419 3.37145,-8.58188 0.30649,-2.758462 -4.59743,-5.823419 -5.21042,-7.355899 -0.61298,-1.532479 -1.83898,-5.823419 -4.59744,-8.275385 -2.0095,-1.786226 -3.85618,-6.175087 -5.89586,-9.611515 2.30944,-7.165806 -10.21092,-11.160176 -17.70431,-13.682162 -1.57104,-0.528753 -7.75818,-1.494167 -12.15447,-1.465433 z"
     sodipodi:nodetypes="ssscsssssssssccsscssssssssssssccsssssssssssssssscss" /></svg>
